<svg width="64" height="64" viewBox="0 0 64 64" fill="none" xmlns="http://www.w3.org/2000/svg">
<path d="M3 32.0005C3 43.8755 10.1408 54.0772 20.359 58.5624C20.2774 56.5374 20.3445 54.1064 20.8638 51.9031C21.4213 49.5489 24.5953 36.1008 24.5953 36.1008C24.5953 36.1008 23.6688 34.2491 23.6688 31.5124C23.6688 27.2148 26.1597 24.0051 29.2618 24.0051C31.8996 24.0051 33.174 25.9864 33.174 28.3589C33.174 31.0106 31.4828 34.977 30.613 38.6507C29.8864 41.727 32.1554 44.2362 35.1902 44.2362C40.6848 44.2362 44.3855 37.179 44.3855 28.8175C44.3855 22.4615 40.1046 17.7041 32.3183 17.7041C23.5214 17.7041 18.041 24.2645 18.041 31.5924C18.041 34.119 18.786 35.9007 19.9528 37.2805C20.4893 37.9142 20.5638 38.1691 20.3696 38.8968C20.2305 39.4303 19.9111 40.715 19.7788 41.224C19.5857 41.9586 18.9906 42.2211 18.3267 41.9499C14.2749 40.2958 12.3878 35.8586 12.3878 30.8706C12.3878 22.6325 19.3356 12.7544 33.1142 12.7544C44.1863 12.7544 51.4737 20.7666 51.4737 29.3671C51.4737 40.7435 45.149 49.2425 35.826 49.2425C32.6951 49.2425 29.75 47.5501 28.7411 45.6277C28.7411 45.6277 27.0575 52.3095 26.7009 53.5998C26.086 55.8357 24.8825 58.0705 23.7821 59.8124C26.4505 60.6013 29.2186 61.0019 32.0011 61.0016C48.0155 61.0016 61.0002 48.0175 61.0002 32.0005C61.0002 15.9841 48.0155 3 32.0011 3C15.9852 3 3 15.9841 3 32.0005Z" fill="black"/>
</svg>
