<svg width="64" height="64" viewBox="0 0 64 64" fill="none" xmlns="http://www.w3.org/2000/svg">
<path d="M54.2819 18.2591C52.6163 18.9821 50.8274 19.4709 48.9465 19.6906C50.8661 18.5661 52.3367 16.7841 53.031 14.6633C51.2075 15.7228 49.2119 16.4687 47.1308 16.8686C45.4372 15.1026 43.0221 14 40.3502 14C35.2217 14 31.0624 18.0672 31.0624 23.0872C31.0624 23.7985 31.1443 24.4924 31.3017 25.1586C23.5814 24.7791 16.7368 21.1613 12.1553 15.6642C11.3553 17.0067 10.8974 18.5677 10.8974 20.2332C10.8974 23.3855 12.5376 26.1668 15.0297 27.796C13.5544 27.7513 12.1115 27.3617 10.8215 26.6599V26.7747C10.8215 31.178 14.023 34.8496 18.2728 35.6846C17.4922 35.8938 16.6729 36.0032 15.8253 36.0032C15.226 36.0032 14.6446 35.9477 14.0766 35.8432C15.2588 39.4522 18.6894 42.0793 22.7531 42.1535C19.5739 44.5915 15.568 46.0448 11.2171 46.0448C10.4677 46.0448 9.72708 46.0011 9 45.9153C13.1116 48.4944 17.9933 50 23.2394 50C40.3249 50 49.6691 36.1531 49.6691 24.1449C49.6691 23.7506 49.6602 23.3593 49.6408 22.9694C51.4614 21.6813 53.0329 20.0863 54.2819 18.2591Z" fill="black"/>
</svg>
